# xmcd
#
# Track frame offsets: 
#        150
#        17875
#        37825
#        52987
#
# Disc length: 1013 seconds
#
# Revision: 1
# Processed by: cddbd v1.5.2PL0 Copyright (c) Steve Scherf et al.
# Submitted via: ExactAudioCopy v1.3
#
DISCID=2503f304
DTITLE=MAN WITH A MISSON - database feat.TAKUMA(10-FEET)
DYEAR=2013
DGENRE=JPop
TTITLE0=database feat.TAKUMA(10-FEET)
TTITLE1=your way
TTITLE2=Green-Tinted Sixties Mind
TTITLE3=distance(remix)
EXTD=
EXTT0=
EXTT1=
EXTT2=
EXTT3=
PLAYORDER=
